# xmcd CD database file
#
# Track frame offsets:
#	150
#	6393
#	22810
#	40475
#	62905
#	83450
#
# Disc length: 1150 seconds
#
# Revision: 1
# Processed by: cddbd v1.5.2PL0 Copyright (c) Steve Scherf et al.
# Submitted via: CD2WAV32(JP) R3.22
#
DISCID=3f047c06
DTITLE=DEEN - Classics Two SEPIA - 秋桜～more ＆ more～
DYEAR=2000
DGENRE=J-POP(J)
TTITLE0=秋桜 (Solostuck)
TTITLE1=秋桜～more ＆ more～
TTITLE2=恋人よ、夢も嘘もすべて
TTITLE3=未来のために(Sing-along Version)
TTITLE4=ひとりじゃない(Bossa Nova Style)
TTITLE5=秋桜 (Reprise)
EXTD=
EXTT0=
EXTT1=
EXTT2=
EXTT3=
EXTT4=
EXTT5=
PLAYORDER=
